HIERARCHY
ROOT Hips
{
  OFFSET 0 96.8 0
  CHANNELS 6 Xposition Yposition Zposition Zrotation Xrotation Yrotation
  JOINT Spine
  {
    OFFSET 0 12.3689 -3.99218
    CHANNELS 3 Zrotation Xrotation Yrotation
    JOINT Spine1
    {
      OFFSET 0 14.0303 0
      CHANNELS 3 Zrotation Xrotation Yrotation
      JOINT Spine2
      {
        OFFSET 0 5.60109 0
        CHANNELS 3 Zrotation Xrotation Yrotation
        JOINT Neck
        {
          OFFSET 0 23.8357 -5.66956
          CHANNELS 3 Zrotation Xrotation Yrotation
          JOINT Head
          {
            OFFSET 0 9.08726 0
            CHANNELS 3 Zrotation Xrotation Yrotation
            End Site
            {
              OFFSET 0 19.5091 9.42096
            }
          }
        }
        JOINT RightShoulder
        {
          OFFSET -6.92539 12.7236 -3.42068
          CHANNELS 3 Zrotation Xrotation Yrotation
          JOINT RightArm
          {
            OFFSET 0 11.9164 0
            CHANNELS 3 Zrotation Xrotation Yrotation
            JOINT RightForeArm
            {
              OFFSET -1.03322e-05 25.7 1.48965e-05
              CHANNELS 3 Zrotation Xrotation Yrotation
              JOINT RightHand
              {
                OFFSET -1.0694e-05 26.6 1.54182e-05
                CHANNELS 3 Zrotation Xrotation Yrotation
                JOINT RightHandThumb1
                {
                  OFFSET 2.51819 2.31438 1.47793
                  CHANNELS 3 Zrotation Xrotation Yrotation
                  JOINT RightHandThumb2
                  {
                    OFFSET 0 3.93334 0
                    CHANNELS 3 Zrotation Xrotation Yrotation
                    JOINT RightHandThumb3
                    {
                      OFFSET 0 3.20778 0
                      CHANNELS 3 Zrotation Xrotation Yrotation
                      End Site
                      {
                        OFFSET 0 2.41783 0
                      }
                    }
                  }
                }
                JOINT RightHandIndex1
                {
                  OFFSET 0 8.70165 0
                  CHANNELS 3 Zrotation Xrotation Yrotation
                  JOINT RightHandIndex2
                  {
                    OFFSET 0 3.42558 0
                    CHANNELS 3 Zrotation Xrotation Yrotation
                    JOINT RightHandIndex3
                    {
                      OFFSET 0 2.63863 0
                      CHANNELS 3 Zrotation Xrotation Yrotation
                      End Site
                      {
                        OFFSET 0 2.56659 0
                      }
                    }
                  }
                }
                JOINT RightHandMiddle1
                {
                  OFFSET -2.22417e-05 8.95076 3.74234e-05
                  CHANNELS 3 Zrotation Xrotation Yrotation
                  JOINT RightHandMiddle2
                  {
                    OFFSET 0 3.4742 0
                    CHANNELS 3 Zrotation Xrotation Yrotation
                    JOINT RightHandMiddle3
                    {
                      OFFSET 0 2.76997 0
                      CHANNELS 3 Zrotation Xrotation Yrotation
                      End Site
                      {
                        OFFSET 0 2.7668 0
                      }
                    }
                  }
                }
                JOINT RightHandRing1
                {
                  OFFSET -1.75131 8.54802 0.0404412
                  CHANNELS 3 Zrotation Xrotation Yrotation
                  JOINT RightHandRing2
                  {
                    OFFSET 0 3.17304 0
                    CHANNELS 3 Zrotation Xrotation Yrotation
                    JOINT RightHandRing3
                    {
                      OFFSET 0 2.71333 0
                      CHANNELS 3 Zrotation Xrotation Yrotation
                      End Site
                      {
                        OFFSET 0 2.47778 0
                      }
                    }
                  }
                }
                JOINT RightHandPinky1
                {
                  OFFSET -3.57399 7.58378 0.457001
                  CHANNELS 3 Zrotation Xrotation Yrotation
                  JOINT RightHandPinky2
                  {
                    OFFSET 0 3.3803 0
                    CHANNELS 3 Zrotation Xrotation Yrotation
                    JOINT RightHandPinky3
                    {
                      OFFSET 0 1.97184 0
                      CHANNELS 3 Zrotation Xrotation Yrotation
                      End Site
                      {
                        OFFSET 0 1.98666 0
                      }
                    }
                  }
                }
              }
            }
          }
        }
        JOINT LeftShoulder
        {
          OFFSET 6.92539 12.7236 -3.42068
          CHANNELS 3 Zrotation Xrotation Yrotation
          JOINT LeftArm
          {
            OFFSET 0 11.9164 0
            CHANNELS 3 Zrotation Xrotation Yrotation
            JOINT LeftForeArm
            {
              OFFSET 0 25.7 0
              CHANNELS 3 Zrotation Xrotation Yrotation
              JOINT LeftHand
              {
                OFFSET 0 26.6 0
                CHANNELS 3 Zrotation Xrotation Yrotation
                JOINT LeftHandThumb1
                {
                  OFFSET -2.51807 2.31564 1.48
                  CHANNELS 3 Zrotation Xrotation Yrotation
                  JOINT LeftHandThumb2
                  {
                    OFFSET 0 3.93157 0
                    CHANNELS 3 Zrotation Xrotation Yrotation
                    JOINT LeftHandThumb3
                    {
                      OFFSET 0 3.20977 0
                      CHANNELS 3 Zrotation Xrotation Yrotation
                      End Site
                      {
                        OFFSET 0 2.4231 0
                      }
                    }
                  }
                }
                JOINT LeftHandIndex1
                {
                  OFFSET 0 8.70165 0
                  CHANNELS 3 Zrotation Xrotation Yrotation
                  JOINT LeftHandIndex2
                  {
                    OFFSET 0 3.42522 0
                    CHANNELS 3 Zrotation Xrotation Yrotation
                    JOINT LeftHandIndex3
                    {
                      OFFSET 0 2.63834 0
                      CHANNELS 3 Zrotation Xrotation Yrotation
                      End Site
                      {
                        OFFSET 0 2.56879 0
                      }
                    }
                  }
                }
                JOINT LeftHandMiddle1
                {
                  OFFSET -3.43705e-05 8.9516 -3.05546e-05
                  CHANNELS 3 Zrotation Xrotation Yrotation
                  JOINT LeftHandMiddle2
                  {
                    OFFSET 0 3.4742 0
                    CHANNELS 3 Zrotation Xrotation Yrotation
                    JOINT LeftHandMiddle3
                    {
                      OFFSET 0 2.76997 0
                      CHANNELS 3 Zrotation Xrotation Yrotation
                      End Site
                      {
                        OFFSET 0 2.77266 0
                      }
                    }
                  }
                }
                JOINT LeftHandRing1
                {
                  OFFSET 1.75126 8.5489 0.0404023
                  CHANNELS 3 Zrotation Xrotation Yrotation
                  JOINT LeftHandRing2
                  {
                    OFFSET 0 2.95776 0
                    CHANNELS 3 Zrotation Xrotation Yrotation
                    JOINT LeftHandRing3
                    {
                      OFFSET 0 2.76997 0
                      CHANNELS 3 Zrotation Xrotation Yrotation
                      End Site
                      {
                        OFFSET -2.1854e-05 2.48294 0
                      }
                    }
                  }
                }
                JOINT LeftHandPinky1
                {
                  OFFSET 3.57398 7.58481 0.457164
                  CHANNELS 3 Zrotation Xrotation Yrotation
                  JOINT LeftHandPinky2
                  {
                    OFFSET 0 3.3803 0
                    CHANNELS 3 Zrotation Xrotation Yrotation
                    JOINT LeftHandPinky3
                    {
                      OFFSET 0 1.97184 0
                      CHANNELS 3 Zrotation Xrotation Yrotation
                      End Site
                      {
                        OFFSET 0 1.99582 0
                      }
                    }
                  }
                }
              }
            }
          }
        }
      }
    }
  }
  JOINT RightUpLeg
  {
    OFFSET -8.5 -8.19964 0.08092
    CHANNELS 3 Zrotation Xrotation Yrotation
    JOINT RightLeg
    {
      OFFSET 0 42.9009 0
      CHANNELS 3 Zrotation Xrotation Yrotation
      JOINT RightFoot
      {
        OFFSET 0 38.0864 0
        CHANNELS 3 Zrotation Xrotation Yrotation
        JOINT RightToe
        {
          OFFSET 0 14.087 0
          CHANNELS 3 Zrotation Xrotation Yrotation
          End Site
          {
            OFFSET 0 9.45955 0
          }
        }
      }
    }
  }
  JOINT LeftUpLeg
  {
    OFFSET 8.5 -8.19964 0.08092
    CHANNELS 3 Zrotation Xrotation Yrotation
    JOINT LeftLeg
    {
      OFFSET 0 42.9009 0
      CHANNELS 3 Zrotation Xrotation Yrotation
      JOINT LeftFoot
      {
        OFFSET 0 38.0864 0
        CHANNELS 3 Zrotation Xrotation Yrotation
        JOINT LeftToe
        {
          OFFSET 0 14.087 0
          CHANNELS 3 Zrotation Xrotation Yrotation
          End Site
          {
            OFFSET 0 9.45957 0
          }
        }
      }
    }
  }
}
MOTION
Frames:	6
Frame Time:	0.0333333
0 96.4227 0 1.34563 10.3981 2.35375 1.91301 9.33355 1.16827 2.45612 -9.15231 1.78594 1.70313 0.702441 1.02429 3.86186e-06 29.2987 -9.90584e-06 -5.56597e-15 2.22639e-14 -5.96354e-15 73.4658 -4.67807 -88.7708 -91.1758 65.2903 37.976 -20.5182 -6.01114 -21.779 -28.0877 -68.618 -47.9494 -30.9004 26.556 14.9798 1.06543 -0.266601 -0.131651 0.7928 -0.191401 -0.091243 -0.0188237 -6.94349e-05 7.70291e-16 0.0292947 1.59028e-15 3.00662e-15 -0.0100751 -3.18055e-15 2.5842e-15 -0.0575027 -0.000112091 -3.90115e-15 0.0973881 -3.18055e-15 -1.68967e-15 -0.0368804 1.59028e-15 -1.93815e-15 0.0178567 7.9792e-06 -1.19271e-15 -0.0253838 -1.59028e-15 2.70844e-15 -0.0129265 0 2.48481e-17 0.0596292 0.000535225 -6.70898e-16 0.096971 0 5.46658e-16 -0.0569265 0 4.96962e-17 -75.9605 -5.67465 89.2971 136.367 69.675 -80.7535 67.1798 -38.2746 21.0834 5.89677 -26.0122 -23.3621 30.7775 26.5578 -14.9111 -0.940956 -0.237838 0.117539 -0.695804 -0.175996 0.084333 -0.0050508 7.6384e-05 -7.7526e-15 0.0120434 3.90438e-05 3.08116e-15 -0.00759159 3.83596e-05 -2.78299e-15 -0.00362641 4.68076e-05 -0 0.0024289 -1.87453e-05 3.77691e-15 0.00237084 -4.89982e-05 1.98785e-15 0.000723448 7.16082e-05 -3.37934e-15 -7.95139e-16 -1.59028e-15 -9.93923e-17 -1.59028e-15 -1.59028e-15 -1.78906e-15 0.234317 -0.000570151 2.33218e-06 -0.0241399 7.20261e-05 5.36719e-15 -0.00768704 1.21015e-05 5.1684e-15 179.736 15.6241 0.386319 0.0313045 -13.5194 0.388231 10.9282 67.2631 -10.1622 -1.55001e-05 39.1744 5.51545e-06 178.929 19.3028 1.5459 -0.185407 -17.1262 -1.26315 -11.298 67.5107 10.2924 -1.59485e-05 39.1744 5.46156e-06
0.0741 96.393 0.0394 1.28108 10.4924 2.35685 1.92206 9.3397 1.1626 2.4658 -9.14507 1.78111 1.71013 0.70757 1.01989 3.86186e-06 29.2987 -9.90584e-06 -8.34896e-15 6.36111e-15 -7.95139e-15 73.4494 -4.67614 -88.7696 -90.8723 65.242 37.7543 -20.5521 -5.89386 -21.9976 -27.8021 -68.8268 -47.7713 -30.9004 26.556 14.9798 1.06543 -0.266601 -0.131651 0.7928 -0.191401 -0.091243 -0.0188237 -6.94349e-05 -4.72114e-16 0.0292947 0 4.99446e-15 -0.0100751 0 -2.83268e-15 -0.0575027 -0.000112091 2.73329e-15 0.0973881 3.18055e-15 6.95746e-16 -0.0368804 -1.59028e-15 7.45443e-17 0.0178567 7.9792e-06 2.48481e-17 -0.0253838 4.77083e-15 1.63997e-15 -0.0129265 -3.18055e-15 1.71452e-15 0.0596292 0.000535225 5.46658e-16 0.096971 -3.18055e-15 1.09332e-15 -0.0569265 0 3.10601e-15 -75.9586 -5.68125 89.3003 136.278 69.6656 -80.7798 67.512 -38.1447 21.3925 5.89162 -26.0194 -23.2303 30.7775 26.5578 -14.9111 -0.940956 -0.237838 0.117539 -0.695804 -0.175996 0.084333 -0.0050508 7.6384e-05 -6.75868e-15 0.0120434 3.90438e-05 5.06901e-15 -0.00759159 3.83596e-05 -0 -0.00362641 4.68076e-05 1.59028e-15 0.0024289 -1.87453e-05 3.67752e-15 0.00237084 -4.89982e-05 1.68967e-15 0.000723448 7.16082e-05 -3.08116e-15 -7.95139e-16 1.59028e-15 -3.67752e-15 1.59028e-15 1.59028e-15 -0 0.234317 -0.000570151 2.33218e-06 -0.0241399 7.20261e-05 -6.36111e-15 -0.00768704 1.21015e-05 9.14409e-15 179.754 15.6776 0.289626 0.0363438 -13.4884 0.432233 10.9712 67.3494 -10.208 -1.55001e-05 39.1744 5.51545e-06 178.945 19.3449 1.55197 -0.19149 -17.1021 -1.30668 -11.3139 67.5452 10.3102 -1.59485e-05 39.1744 5.46156e-06
0.1335 96.3577 0.08218 1.20524 10.5946 2.28917 1.93101 9.32169 1.14003 2.47279 -9.16618 1.75649 1.71543 0.692568 1.00149 3.86186e-06 29.2987 -9.90584e-06 -5.96354e-15 0 -7.55382e-15 73.4234 -4.64242 -88.7528 -90.6321 65.0797 37.5684 -20.4416 -5.57736 -22.2606 -27.3323 -68.9449 -47.2471 -30.9004 26.556 14.9798 1.06543 -0.266601 -0.131651 0.7928 -0.191401 -0.091243 -0.0188237 -6.94349e-05 3.08116e-15 0.0292947 1.59028e-15 3.47873e-16 -0.0100751 0 -1.98785e-16 -0.0575027 -0.000112091 -3.97569e-16 0.0973881 1.59028e-15 -1.83876e-15 -0.0368804 -1.59028e-15 -2.5345e-15 0.0178567 7.9792e-06 1.31695e-15 -0.0253838 1.59028e-15 2.98177e-16 -0.0129265 3.18055e-15 3.37934e-15 0.0596292 0.000535225 1.16786e-15 0.096971 1.59028e-15 2.28602e-15 -0.0569265 0 -1.46604e-15 -75.97 -5.72098 89.3199 136.138 69.7419 -80.8884 67.9155 -37.9364 21.7409 5.84168 -26.0067 -23.0731 30.7775 26.5578 -14.9111 -0.940956 -0.237838 0.117539 -0.695804 -0.175996 0.084333 -0.0050508 7.6384e-05 -2.5842e-15 0.0120434 3.90438e-05 2.18663e-15 -0.00759159 3.83596e-05 -7.25564e-15 -0.00362641 4.68076e-05 1.88845e-15 0.0024289 -1.87453e-05 -7.95139e-16 0.00237084 -4.89982e-05 7.15625e-15 0.000723448 7.16082e-05 -1.88845e-15 7.95139e-16 1.59028e-15 -1.59028e-15 2.38542e-15 6.36111e-15 -5.46658e-15 0.234317 -0.000570151 2.33218e-06 -0.0241399 7.20261e-05 -1.78906e-15 -0.00768704 1.21015e-05 2.18663e-15 179.826 15.7452 0.165005 0.046066 -13.4532 0.516919 10.9968 67.4335 -10.2476 -1.55001e-05 39.1744 5.51545e-06 179.018 19.3774 1.54408 -0.203513 -17.068 -1.38585 -11.3676 67.6027 10.3495 -1.59485e-05 39.1744 5.46156e-06
0.1929 96.3436 0.02435 1.06849 10.6664 2.13253 1.93852 9.29435 1.03337 2.46408 -9.19886 1.63229 1.71157 0.66986 0.913509 3.86186e-06 29.2987 -9.90584e-06 -5.96354e-15 -3.18055e-15 -7.15625e-15 73.4199 -4.5996 -88.7318 -90.6689 64.9441 37.4296 -20.5453 -5.23747 -22.1799 -27.2872 -68.6735 -47.4997 -30.9004 26.556 14.9798 1.06543 -0.266601 -0.131651 0.7928 -0.191401 -0.091243 -0.0188237 -6.94349e-05 -1.59028e-15 0.0292947 -3.18055e-15 8.69683e-16 -0.0100751 0 1.54058e-15 -0.0575027 -0.000112091 -5.46658e-16 0.0973881 -1.59028e-15 -2.41026e-15 -0.0368804 -3.18055e-15 -9.93923e-17 0.0178567 7.9792e-06 -1.59028e-15 -0.0253838 -3.18055e-15 -2.48481e-16 -0.0129265 -1.59028e-15 1.39149e-15 0.0596292 0.000535225 -3.72721e-16 0.096971 -1.59028e-15 1.21756e-15 -0.0569265 1.59028e-15 -7.95139e-16 -76.0011 -5.82905 89.3732 135.769 70.0027 -81.0821 68.5227 -37.6702 22.2179 5.7891 -25.9455 -22.8845 30.7775 26.5578 -14.9111 -0.940956 -0.237838 0.117539 -0.695804 -0.175996 0.084333 -0.0050508 7.6384e-05 -9.93923e-15 0.0120434 3.90438e-05 4.96962e-15 -0.00759159 3.83596e-05 -9.93923e-16 -0.00362641 4.68076e-05 2.98177e-15 0.0024289 -1.87453e-05 5.1684e-15 0.00237084 -4.89982e-05 5.56597e-15 0.000723448 7.16082e-05 -5.96354e-15 0 0 -8.34896e-15 2.38542e-15 0 -7.95139e-16 0.234317 -0.000570151 2.33218e-06 -0.0241399 7.20261e-05 -9.14409e-15 -0.00768704 1.21015e-05 -6.75868e-15 179.971 15.8641 0.0594768 0.042382 -13.4213 0.487104 10.9983 67.4386 -10.2507 -1.55001e-05 39.1744 5.51545e-06 179.174 19.4855 1.53091 -0.23405 -17.067 -1.58654 -11.3702 67.5994 10.346 -1.59485e-05 39.1744 5.46156e-06
0.2842 96.3285 -0.22723 0.899122 10.7022 1.83879 1.92135 9.26354 0.988927 2.43666 -9.23533 1.57639 1.69306 0.644223 0.876218 3.86186e-06 29.2987 -9.90584e-06 -7.15625e-15 2.22639e-14 -6.75868e-15 73.4287 -4.60424 -88.7342 -90.6715 64.9408 37.504 -20.6847 -4.80784 -22.1778 -27.1424 -69.3565 -47.7074 -30.9004 26.556 14.9798 1.06543 -0.266601 -0.131651 0.7928 -0.191401 -0.091243 -0.0188237 -6.94349e-05 3.47873e-16 0.0292947 1.59028e-15 -2.48481e-16 -0.0100751 0 1.98785e-15 -0.0575027 -0.000112091 1.49089e-15 0.0973881 3.18055e-15 1.2424e-15 -0.0368804 1.59028e-15 2.88238e-15 0.0178567 7.9792e-06 2.03754e-15 -0.0253838 3.18055e-15 4.96962e-16 -0.0129265 0 -1.2424e-15 0.0596292 0.000535225 -1.49089e-16 0.096971 -1.59028e-15 -2.13694e-15 -0.0569265 4.77083e-15 7.45443e-16 -76.0256 -5.90646 89.4115 135.519 70.2846 -81.2113 69.1844 -37.5514 22.7315 5.9355 -25.853 -22.5453 30.7775 26.5578 -14.9111 -0.940956 -0.237838 0.117539 -0.695804 -0.175996 0.084333 -0.0050508 7.6384e-05 1.98785e-16 0.0120434 3.90438e-05 2.78299e-15 -0.00759159 3.83596e-05 3.57812e-15 -0.00362641 4.68076e-05 1.98785e-15 0.0024289 -1.87453e-05 7.95139e-16 0.00237084 -4.89982e-05 -3.37934e-15 0.000723448 7.16082e-05 2.98177e-15 1.59028e-15 3.18055e-15 1.78906e-15 7.95139e-16 1.59028e-15 3.18055e-15 0.234317 -0.000570151 2.33218e-06 -0.0241399 7.20261e-05 1.78906e-15 -0.00768704 1.21015e-05 9.14409e-15 -179.855 16.0867 -0.00427499 0.0272818 -13.3734 0.356458 10.9601 67.304 -10.1906 -1.55001e-05 39.1744 5.51545e-06 179.366 19.7078 1.49818 -0.26701 -17.1251 -1.79461 -11.3038 67.4945 10.2809 -1.59485e-05 39.1744 5.46156e-06
0.3037 96.3017 -0.21411 0.709482 10.803 1.45056 1.85916 9.21249 0.988354 2.36359 -9.29553 1.56293 1.64122 0.601699 0.873814 3.86186e-06 29.2987 -9.90584e-06 -7.15625e-15 0 -7.55382e-15 73.5294 -4.6845 -88.7748 -91.3915 65.3795 38.1815 -21.4272 -5.31591 -21.2735 -28.6332 -70.8756 -49.4527 -30.9004 26.556 14.9798 1.06543 -0.266601 -0.131651 0.7928 -0.191401 -0.091243 -0.0188237 -6.94349e-05 -2.5842e-15 0.0292947 3.18055e-15 -2.38542e-15 -0.0100751 3.18055e-15 -2.78299e-15 -0.0575027 -0.000112091 -2.38542e-15 0.0973881 -6.36111e-15 2.78299e-15 -0.0368804 0 1.78906e-15 0.0178567 7.9792e-06 -3.97569e-16 -0.0253838 -1.59028e-15 -3.97569e-16 -0.0129265 1.59028e-15 -9.93923e-16 0.0596292 0.000535225 -4.77083e-15 0.096971 1.59028e-15 1.98785e-16 -0.0569265 1.59028e-15 1.19271e-15 -76.0355 -5.91347 89.4151 135.445 70.4473 -81.1939 69.7864 -37.8609 23.4443 6.06257 -25.7185 -22.0405 30.7775 26.5578 -14.9111 -0.940956 -0.237838 0.117539 -0.695804 -0.175996 0.084333 -0.0050508 7.6384e-05 -1.98785e-16 0.0120434 3.90438e-05 -7.15625e-15 -0.00759159 3.83596e-05 1.98785e-16 -0.00362641 4.68076e-05 7.95139e-16 0.0024289 -1.87453e-05 2.78299e-15 0.00237084 -4.89982e-05 1.19271e-15 0.000723448 7.16082e-05 -2.5842e-15 -7.95139e-16 0 -6.16232e-15 7.95139e-16 -1.59028e-15 9.93923e-16 0.234317 -0.000570151 2.33218e-06 -0.0241399 7.20261e-05 -5.96354e-15 -0.00768704 1.21015e-05 -7.15625e-15 -179.583 16.1942 -0.139791 0.0141541 -13.3089 0.241282 10.9755 67.3311 -10.2045 -1.55001e-05 39.1744 5.51545e-06 179.657 19.8121 1.4321 -0.30155 -17.2019 -2.01193 -11.3508 67.5834 10.3253 -1.59485e-05 39.1744 5.46156e-06
